<svg version="1.2" xmlns="http://www.w3.org/2000/svg" viewBox="0 0 1512 997" width="1512" height="997">
	<defs>
		<clipPath clipPathUnits="userSpaceOnUse" id="cp1">
			<path d="m0 0h1512v1222h-1512z"/>
		</clipPath>
		<clipPath clipPathUnits="userSpaceOnUse" id="cp2">
			<path d="m1536 0v1050h-1536v-1050z"/>
		</clipPath>
		<filter x="-50%" y="-50%" width="200%" height="200%" id="f1"> <feGaussianBlur stdDeviation="62.5"/> </filter>
		<linearGradient id="g1" x2="1" gradientUnits="userSpaceOnUse" gradientTransform="matrix(-332.035,-207.497,116.259,-186.037,827.808,606.021)">
			<stop offset=".03" stop-color="#7172ff"/>
			<stop offset=".228" stop-color="#78b9fe"/>
			<stop offset=".425" stop-color="#80fffd"/>
			<stop offset=".845" stop-color="#a6fe7c"/>
		</linearGradient>
		<filter x="-50%" y="-50%" width="200%" height="200%" id="f2"> <feGaussianBlur stdDeviation="75"/> </filter>
		<linearGradient id="g2" x2="1" gradientUnits="userSpaceOnUse" gradientTransform="matrix(-293.853,-237.918,136.595,-168.709,1006.976,475.065)">
			<stop offset="0" stop-color="#ff80c5"/>
			<stop offset=".5" stop-color="#ff9310"/>
			<stop offset="1" stop-color="#fff50a"/>
		</linearGradient>
	</defs>
	<style>
		.s0 { opacity: .7;filter: url(#f1);fill: url(#g1) } 
		.s1 { opacity: .7;filter: url(#f2);fill: url(#g2) } 
	</style>
	<g id="Clip-Path" clip-path="url(#cp1)">
		<g>
			<g id="Clip-Path" clip-path="url(#cp2)">
				<g>
					<g>
						<path fill-rule="evenodd" class="s0" d="m452.83 314.77c153.65-10.23 356.57 94.53 453.98 234.37 97.4 139.83 51.94 261.13-101.71 271.36-153.64 10.23-356.57-94.53-453.97-234.37-97.4-139.83-51.94-261.13 101.7-271.36z"/>
					</g>
					<g>
						<path fill-rule="evenodd" class="s1" d="m691.17 174.21c154.67 2.51 344.72 114.11 425.17 249.66 80.46 135.56 20.47 243.1-134.19 240.59-154.66-2.5-344.71-114.1-425.17-249.66-80.45-135.55-20.47-243.09 134.19-240.59z"/>
					</g>
				</g>
			</g>
		</g>
	</g>
</svg>